<?xml version="1.0" standalone="no"?>
<!DOCTYPE svg PUBLIC "-//W3C//DTD SVG 20010904//EN"
 "http://www.w3.org/TR/2001/REC-SVG-20010904/DTD/svg10.dtd">
<svg version="1.0" xmlns="http://www.w3.org/2000/svg"
 width="512.000000pt" height="512.000000pt" viewBox="0 0 512.000000 512.000000"
 preserveAspectRatio="xMidYMid meet">

<g transform="translate(0.000000,512.000000) scale(0.100000,-0.100000)"
fill="#000000" stroke="none">
<path d="M3655 5010 c-71 -14 -169 -55 -227 -94 -59 -39 -163 -143 -180 -181
-9 -20 -20 -23 -96 -28 -150 -10 -253 -58 -350 -162 -65 -69 -113 -157 -137
-250 -19 -73 -19 -223 -1 -290 45 -172 169 -297 344 -349 71 -20 107 -48 126
-96 14 -35 16 -94 16 -419 l0 -379 28 -53 c21 -42 40 -61 82 -86 l54 -33 461
0 c423 0 463 2 500 19 51 23 111 89 124 138 7 24 11 179 11 411 0 324 2 379
16 408 19 40 53 66 109 84 174 56 308 193 371 380 25 75 25 225 0 300 -64 192
-220 329 -419 370 -31 6 -79 10 -106 9 l-49 -3 -49 64 c-88 117 -203 193 -350
231 -79 20 -203 24 -278 9z m291 -121 c171 -52 310 -208 321 -359 6 -76 24
-110 58 -110 46 0 58 26 51 108 l-6 75 70 -5 c140 -10 279 -109 343 -245 30
-63 32 -76 32 -173 0 -101 -2 -108 -37 -183 -43 -89 -126 -180 -198 -217 -62
-32 -175 -49 -320 -50 -97 0 -131 -4 -148 -16 -26 -18 -28 -50 -5 -76 14 -15
32 -18 121 -18 96 0 103 -1 96 -17 -5 -10 -11 -166 -14 -348 l-5 -330 -55 -7
c-30 -3 -70 -6 -87 -7 l-33 -1 0 194 c0 210 -4 226 -54 226 -43 0 -46 -13 -46
-222 l0 -198 -95 0 -95 0 0 192 c0 207 -5 228 -56 228 -47 0 -54 -29 -54 -232
l0 -188 -90 0 -90 0 0 188 c0 154 -3 192 -16 210 -18 26 -50 28 -76 5 -16 -14
-18 -35 -18 -200 l0 -183 -32 1 c-18 0 -60 8 -93 17 l-60 17 -5 310 c-5 328
-4 322 -57 391 -26 35 -101 78 -153 89 -148 31 -256 162 -282 342 -26 176 50
348 192 438 52 33 150 65 199 65 l39 0 -5 -73 c-6 -81 7 -107 51 -107 36 0 48
23 57 111 9 90 33 141 103 218 135 147 349 202 552 140z m-541 -2066 c84 -15
164 -18 498 -17 433 0 415 3 380 -57 -35 -58 -40 -59 -502 -59 -455 0 -470 2
-504 53 -9 14 -20 45 -23 68 l-7 42 29 -6 c16 -4 74 -15 129 -24z"/>
<path d="M637 4513 c-16 -18 -17 -55 -17 -449 l0 -429 -108 -33 c-132 -41
-343 -127 -377 -154 l-25 -19 0 -1654 c0 -1860 -8 -1688 78 -1668 26 6 115 27
197 46 163 38 396 79 570 99 171 20 747 17 907 -5 188 -25 374 -62 541 -106
l148 -39 132 35 c178 46 340 78 532 105 140 19 203 22 500 23 214 0 381 -5
450 -13 174 -20 407 -61 570 -99 83 -19 171 -40 197 -46 86 -20 78 -192 78
1668 0 1561 -1 1653 -17 1668 -19 16 -91 50 -212 98 -69 28 -75 29 -98 14 -19
-13 -23 -23 -21 -48 3 -30 8 -33 123 -82 l120 -51 3 -1347 2 -1347 -37 16
c-21 9 -94 36 -163 61 -496 177 -1023 207 -1560 87 -180 -41 -370 -98 -523
-159 -16 -7 -17 59 -15 1341 l3 1348 104 41 c79 31 106 46 112 64 11 27 -3 57
-31 66 -18 6 -99 -19 -189 -58 l-35 -15 -47 69 c-307 446 -747 748 -1300 894
-141 37 -373 79 -499 90 -67 6 -77 5 -93 -12z m314 -123 c243 -41 454 -108
674 -214 336 -163 606 -390 806 -680 l69 -99 0 -1305 0 -1304 -72 93 c-355
460 -933 763 -1580 831 l-118 12 0 1349 0 1349 53 -7 c28 -3 104 -15 168 -25z
m-331 -1800 c0 -1074 -13 -962 111 -974 308 -30 638 -117 884 -235 233 -112
417 -243 596 -427 90 -92 212 -234 206 -240 -1 -2 -55 15 -118 36 -243 80
-530 140 -764 160 -415 35 -855 -37 -1273 -208 l-52 -22 2 1347 3 1347 80 35
c86 37 292 110 313 111 9 0 12 -192 12 -930z m1105 -1810 c238 -36 550 -120
719 -195 l56 -25 0 -55 c0 -30 -2 -55 -4 -55 -3 0 -40 11 -83 24 -229 72 -449
121 -683 153 -208 28 -683 25 -875 -5 -208 -33 -474 -103 -627 -167 -16 -6
-18 0 -18 51 l0 59 88 37 c246 106 494 169 772 198 141 15 496 4 655 -20z
m2463 1 c229 -35 420 -88 629 -177 l93 -39 0 -59 c0 -52 -2 -57 -17 -51 -64
27 -267 91 -368 116 -212 52 -366 70 -635 76 -415 9 -767 -41 -1174 -167 -54
-16 -100 -30 -102 -30 -2 0 -4 26 -4 58 l0 58 96 37 c249 97 573 171 859 197
153 13 469 4 623 -19z m-2518 -257 c249 -28 463 -73 698 -146 l132 -41 0 -55
c0 -51 -1 -54 -22 -49 -13 3 -92 21 -175 41 -518 124 -1037 138 -1613 45 -121
-19 -435 -84 -465 -95 -12 -5 -15 4 -15 50 l0 57 53 24 c144 63 424 137 629
165 231 32 519 33 778 4z m2345 15 c256 -17 448 -52 663 -121 69 -22 150 -51
179 -63 l53 -24 0 -57 c0 -47 -2 -55 -16 -50 -87 34 -410 97 -629 123 -215 26
-836 26 -1045 0 -182 -23 -387 -60 -506 -92 -51 -14 -94 -25 -98 -25 -3 0 -6
24 -6 53 l0 53 113 36 c417 133 891 195 1292 167z"/>
<path d="M1182 3948 c-16 -16 -15 -63 1 -76 7 -6 31 -15 54 -20 32 -7 47 -6
62 5 21 14 27 48 13 70 -18 29 -108 43 -130 21z"/>
<path d="M1556 3811 c-31 -34 -17 -63 44 -95 190 -99 344 -206 488 -339 82
-77 114 -91 140 -65 7 7 12 24 12 39 0 45 -200 222 -385 342 -80 51 -248 137
-268 137 -8 0 -22 -9 -31 -19z"/>
<path d="M1182 3558 c-16 -16 -15 -63 1 -75 6 -6 55 -22 107 -37 177 -50 394
-158 575 -285 87 -61 236 -183 274 -225 42 -45 101 -31 101 25 0 21 -17 43
-72 94 -222 206 -516 382 -793 474 -125 42 -173 49 -193 29z"/>
<path d="M1181 3167 c-16 -20 -11 -68 9 -77 8 -4 74 -26 145 -49 261 -83 531
-245 768 -460 67 -61 100 -74 125 -49 28 28 13 64 -52 125 -217 204 -541 400
-796 483 -121 40 -181 48 -199 27z"/>
<path d="M1182 2818 c-9 -9 -12 -77 -12 -245 0 -230 0 -233 23 -247 12 -8 33
-17 47 -21 52 -15 168 -69 238 -112 82 -50 115 -52 132 -7 6 14 10 118 10 231
l0 206 -34 32 c-59 56 -311 175 -369 175 -13 0 -28 -5 -35 -12z m144 -134 c22
-9 72 -34 112 -57 l72 -41 0 -143 0 -142 -89 43 c-49 24 -103 48 -120 54 l-31
11 0 145 c0 81 4 146 9 146 5 0 26 -7 47 -16z"/>
<path d="M1787 2512 c-33 -36 -22 -58 61 -113 98 -66 148 -106 244 -196 77
-73 109 -88 136 -61 7 7 12 24 12 39 0 45 -216 238 -361 322 -54 32 -70 33
-92 9z"/>
<path d="M1787 2122 c-32 -35 -21 -60 41 -99 90 -57 170 -121 259 -205 82 -78
114 -93 141 -66 7 7 12 24 12 39 0 45 -216 238 -361 322 -54 32 -70 33 -92 9z"/>
<path d="M4082 2347 c-63 -56 -124 -120 -137 -142 -13 -21 -33 -79 -44 -127
-21 -91 -40 -136 -63 -155 -10 -9 -86 44 -338 238 -179 137 -335 252 -348 255
-37 10 -58 -18 -71 -96 -26 -162 -3 -331 62 -438 61 -102 185 -194 301 -223
25 -6 46 -14 45 -18 0 -3 -86 -71 -191 -150 -105 -80 -199 -159 -209 -175 -56
-91 20 -206 127 -193 35 4 78 30 261 162 248 180 263 192 263 217 0 25 -38 61
-58 55 -10 -2 -120 -79 -246 -170 -125 -92 -232 -167 -236 -167 -13 0 -32 29
-26 39 4 5 110 89 236 185 248 191 256 195 336 161 19 -8 178 -119 352 -247
l317 -233 57 0 c51 0 61 3 89 32 26 26 33 42 37 85 4 47 1 58 -22 85 -14 17
-134 113 -266 213 -132 101 -237 186 -234 189 3 3 56 6 117 6 141 1 183 19
317 134 102 89 120 108 120 128 0 19 -37 53 -57 53 -10 0 -65 -41 -122 -91
-57 -50 -115 -95 -130 -101 -14 -6 -84 -14 -156 -18 -93 -4 -139 -11 -163 -23
-31 -17 -33 -17 -61 4 l-29 22 29 40 c31 42 59 122 59 167 0 58 48 125 160
225 114 101 128 125 94 159 -30 31 -57 17 -172 -87z m-252 -572 c344 -262 636
-487 649 -500 21 -20 22 -26 11 -40 -7 -9 -18 -14 -25 -11 -6 2 -151 106 -321
231 -170 125 -328 236 -351 246 -24 11 -85 23 -145 29 -121 12 -192 31 -271
72 -108 58 -178 162 -199 294 -12 79 -3 180 15 166 7 -5 293 -224 637 -487z"/>
<path d="M4355 2221 c-16 -11 -86 -68 -155 -128 -137 -119 -154 -147 -106
-178 22 -15 27 -15 53 -1 15 8 87 66 158 128 141 123 158 151 113 182 -28 20
-27 20 -63 -3z"/>
</g>
</svg>
